<svg xmlns="http://www.w3.org/2000/svg" width="1200" height="320" viewBox="0 0 1200 320" role="img" aria-labelledby="title desc">
  <title id="title">Activity Signal for Haruto69</title>
  <desc id="desc">GitHub contribution activity for Haruto69 across the last 31 days, from 2026-08-10 through 2026-09-09.</desc>
  <defs>
    <linearGradient id="panel" x1="0" y1="0" x2="1" y2="1"><stop stop-color="#11161d"/><stop offset=".58" stop-color="#0d1117"/><stop offset="1" stop-color="#150f1f"/></linearGradient>
    <linearGradient id="line" x1="0" x2="1"><stop stop-color="#00d9ff"/><stop offset=".72" stop-color="#b388ff"/><stop offset="1" stop-color="#00d9ff"/></linearGradient>
    <linearGradient id="area" x1="0" y1="0" x2="0" y2="1"><stop stop-color="#6a1b9a" stop-opacity=".42"/><stop offset="1" stop-color="#6a1b9a" stop-opacity=".02"/></linearGradient>
    <linearGradient id="sweep" x1="0" x2="1"><stop stop-color="#00d9ff" stop-opacity="0"/><stop offset=".5" stop-color="#00d9ff" stop-opacity=".18"/><stop offset="1" stop-color="#b388ff" stop-opacity="0"/></linearGradient>
    <filter id="glow" x="-80%" y="-80%" width="260%" height="260%"><feGaussianBlur stdDeviation="3" result="b"/><feMerge><feMergeNode in="b"/><feMergeNode in="SourceGraphic"/></feMerge></filter>
    <clipPath id="plot-clip"><rect x="72" y="100" width="1068" height="144"/></clipPath>
  </defs>
  <style>
    .mono{font-family:ui-monospace,SFMono-Regular,Menlo,Monaco,Consolas,monospace}.grid line,.dates line{stroke:#30363d;stroke-width:1}.dates line{opacity:.45}.dates text{fill:#8b949e;font:9px ui-monospace,SFMono-Regular,Menlo,Monaco,Consolas,monospace;letter-spacing:1px}.area{fill:url(#area)}.activity-line{fill:none;stroke:url(#line);stroke-width:3;stroke-linejoin:round;stroke-linecap:round;stroke-dasharray:1;stroke-dashoffset:1;animation:draw 2.8s ease-out forwards}.point{fill:#0d1117;stroke:#00d9ff;stroke-width:1.5}.latest{fill:#b388ff;stroke:#00d9ff;stroke-width:2;filter:url(#glow);animation:pulse 3s ease-in-out infinite}.signal-sweep{animation:sweep 9s ease-in-out infinite}.status{animation:status 3.4s ease-in-out infinite}
    @keyframes draw{to{stroke-dashoffset:0}}@keyframes pulse{0%,100%{opacity:.55;transform:scale(.85);transform-origin:1140px 233.71px}50%{opacity:1;transform:scale(1.25);transform-origin:1140px 233.71px}}@keyframes sweep{0%,100%{transform:translateX(-180px);opacity:0}20%,80%{opacity:.6}50%{transform:translateX(1190px);opacity:.18}}@keyframes status{0%,100%{opacity:.4}50%{opacity:1}}
    @media(prefers-reduced-motion:reduce){.activity-line{stroke-dashoffset:0}.activity-line,.latest,.signal-sweep,.status{animation:none}}
  </style>
  <rect x="1" y="1" width="1198" height="318" rx="12" fill="url(#panel)" stroke="#30363d"/>
  <path d="M1 42V13Q1 1 13 1h130M1057 1h130q12 0 12 12v29M1 278v29q0 12 12 12h130M1057 319h130q12 0 12-12v-29" fill="none" stroke="url(#line)" stroke-width="1.5"/>
  <g class="mono"><text x="28" y="34" fill="#00d9ff" font-size="13" letter-spacing="2">ACTIVITY SIGNAL // LAST 31 DAYS</text><text x="1172" y="24" text-anchor="end" fill="#8b949e" font-size="9" letter-spacing="1.2">SOURCE // GITHUB CONTRIBUTIONS</text><text x="1172" y="39" text-anchor="end" fill="#8b949e" font-size="9" letter-spacing="1.2">WINDOW // 31 DAYS</text><circle cx="1032" cy="35" r="3" fill="#00d9ff" class="status" filter="url(#glow)"/></g>
  <g class="mono" font-size="10" letter-spacing="1.1"><text x="72" y="72" fill="#c9d1d9">TOTAL // 142</text><text x="290" y="72" fill="#c9d1d9">PEAK // 28</text><text x="486" y="72" fill="#c9d1d9">AVG / DAY // 4.6</text><text x="738" y="72" fill="#c9d1d9">PEAK DATE // 2026-08-15</text><text x="1140" y="72" text-anchor="end" fill="#00d9ff">SIGNAL // LIVE</text></g>
  <g class="grid"><line x1="72" y1="100" x2="1140" y2="100" /><line x1="72" y1="136" x2="1140" y2="136" /><line x1="72" y1="172" x2="1140" y2="172" /><line x1="72" y1="208" x2="1140" y2="208" /><line x1="72" y1="244" x2="1140" y2="244" /></g><g class="dates"><g><line x1="72" y1="100" x2="72" y2="244"/><text x="72" y="274" text-anchor="start">10 AUG</text></g><g><line x1="321.2" y1="100" x2="321.2" y2="244"/><text x="321.2" y="274" text-anchor="middle">17 AUG</text></g><g><line x1="606" y1="100" x2="606" y2="244"/><text x="606" y="274" text-anchor="middle">25 AUG</text></g><g><line x1="890.8" y1="100" x2="890.8" y2="244"/><text x="890.8" y="274" text-anchor="middle">02 SEP</text></g><g><line x1="1140" y1="100" x2="1140" y2="244"/><text x="1140" y="274" text-anchor="end">09 SEP</text></g></g>
  <g clip-path="url(#plot-clip)"><path class="area" d="M 72 244 L 72 244 L 107.6 197.71 L 143.2 244 L 178.8 238.86 L 214.4 213.14 L 250 100 L 285.6 228.57 L 321.2 223.43 L 356.8 218.29 L 392.4 166.86 L 428 177.14 L 463.6 244 L 499.2 233.71 L 534.8 238.86 L 570.4 223.43 L 606 244 L 641.6 244 L 677.2 218.29 L 712.8 218.29 L 748.4 233.71 L 784 228.57 L 819.6 202.86 L 855.2 223.43 L 890.8 218.29 L 926.4 233.71 L 962 244 L 997.6 233.71 L 1033.2 223.43 L 1068.8 228.57 L 1104.4 213.14 L 1140 233.71 L 1140 244 Z"/><polyline class="activity-line" pathLength="1" points="72,244 107.6,197.71 143.2,244 178.8,238.86 214.4,213.14 250,100 285.6,228.57 321.2,223.43 356.8,218.29 392.4,166.86 428,177.14 463.6,244 499.2,233.71 534.8,238.86 570.4,223.43 606,244 641.6,244 677.2,218.29 712.8,218.29 748.4,233.71 784,228.57 819.6,202.86 855.2,223.43 890.8,218.29 926.4,233.71 962,244 997.6,233.71 1033.2,223.43 1068.8,228.57 1104.4,213.14 1140,233.71"/><circle class="point" data-date="2026-08-10" data-count="0" cx="72" cy="244" r="2.8"/><circle class="point" data-date="2026-08-11" data-count="9" cx="107.6" cy="197.71" r="2.8"/><circle class="point" data-date="2026-08-12" data-count="0" cx="143.2" cy="244" r="2.8"/><circle class="point" data-date="2026-08-13" data-count="1" cx="178.8" cy="238.86" r="2.8"/><circle class="point" data-date="2026-08-14" data-count="6" cx="214.4" cy="213.14" r="2.8"/><circle class="point" data-date="2026-08-15" data-count="28" cx="250" cy="100" r="2.8"/><circle class="point" data-date="2026-08-16" data-count="3" cx="285.6" cy="228.57" r="2.8"/><circle class="point" data-date="2026-08-17" data-count="4" cx="321.2" cy="223.43" r="2.8"/><circle class="point" data-date="2026-08-18" data-count="5" cx="356.8" cy="218.29" r="2.8"/><circle class="point" data-date="2026-08-19" data-count="15" cx="392.4" cy="166.86" r="2.8"/><circle class="point" data-date="2026-08-20" data-count="13" cx="428" cy="177.14" r="2.8"/><circle class="point" data-date="2026-08-21" data-count="0" cx="463.6" cy="244" r="2.8"/><circle class="point" data-date="2026-08-22" data-count="2" cx="499.2" cy="233.71" r="2.8"/><circle class="point" data-date="2026-08-23" data-count="1" cx="534.8" cy="238.86" r="2.8"/><circle class="point" data-date="2026-08-24" data-count="4" cx="570.4" cy="223.43" r="2.8"/><circle class="point" data-date="2026-08-25" data-count="0" cx="606" cy="244" r="2.8"/><circle class="point" data-date="2026-08-26" data-count="0" cx="641.6" cy="244" r="2.8"/><circle class="point" data-date="2026-08-27" data-count="5" cx="677.2" cy="218.29" r="2.8"/><circle class="point" data-date="2026-08-28" data-count="5" cx="712.8" cy="218.29" r="2.8"/><circle class="point" data-date="2026-08-29" data-count="2" cx="748.4" cy="233.71" r="2.8"/><circle class="point" data-date="2026-08-30" data-count="3" cx="784" cy="228.57" r="2.8"/><circle class="point" data-date="2026-08-31" data-count="8" cx="819.6" cy="202.86" r="2.8"/><circle class="point" data-date="2026-09-01" data-count="4" cx="855.2" cy="223.43" r="2.8"/><circle class="point" data-date="2026-09-02" data-count="5" cx="890.8" cy="218.29" r="2.8"/><circle class="point" data-date="2026-09-03" data-count="2" cx="926.4" cy="233.71" r="2.8"/><circle class="point" data-date="2026-09-04" data-count="0" cx="962" cy="244" r="2.8"/><circle class="point" data-date="2026-09-05" data-count="2" cx="997.6" cy="233.71" r="2.8"/><circle class="point" data-date="2026-09-06" data-count="4" cx="1033.2" cy="223.43" r="2.8"/><circle class="point" data-date="2026-09-07" data-count="3" cx="1068.8" cy="228.57" r="2.8"/><circle class="point" data-date="2026-09-08" data-count="6" cx="1104.4" cy="213.14" r="2.8"/><circle class="point latest" data-date="2026-09-09" data-count="2" cx="1140" cy="233.71" r="5"/><rect class="signal-sweep" x="-78" y="100" width="150" height="144" fill="url(#sweep)"/></g>
  <g class="mono" fill="#6e7681" font-size="8" letter-spacing="1.2"><text x="28" y="301">CHRONOLOGY // OLDEST → NEWEST</text><text x="1172" y="301" text-anchor="end">DATA POINTS // 31</text></g>
</svg>
