<svg xmlns="http://www.w3.org/2000/svg" width="420" height="180" viewBox="0 0 420 180" role="img" aria-labelledby="title desc">
  <title id="title">Self-Care</title><desc id="desc">Project node for the live adaptive Self-Care wellness platform.</desc>
  <defs><linearGradient id="edge" x1="0" x2="1"><stop stop-color="#00d9ff"/><stop offset="1" stop-color="#b388ff"/></linearGradient><filter id="glow" x="-80%" y="-80%" width="260%" height="260%"><feGaussianBlur stdDeviation="2" result="b"/><feFlood flood-color="#00d9ff" flood-opacity=".45"/><feComposite in2="b" operator="in"/><feMerge><feMergeNode/><feMergeNode in="SourceGraphic"/></feMerge></filter><clipPath id="clip"><rect x="1" y="1" width="418" height="178" rx="10"/></clipPath></defs>
  <style>.m{font-family:ui-monospace,SFMono-Regular,Menlo,Consolas,monospace}.scan{animation:scan 7.8s ease-in-out infinite}.pulse{animation:pulse 3.3s ease-in-out infinite}.dot{animation:dot 6.8s linear infinite}@keyframes scan{0%,100%{transform:translateY(-8px);opacity:0}15%,85%{opacity:.3}50%{transform:translateY(176px);opacity:.1}}@keyframes pulse{0%,100%{opacity:.35}50%{opacity:1}}@keyframes dot{0%{transform:translateX(0);opacity:0}15%,85%{opacity:1}100%{transform:translateX(112px);opacity:0}}@media(prefers-reduced-motion:reduce){.scan,.pulse,.dot{animation:none}}</style>
  <rect x="1" y="1" width="418" height="178" rx="10" fill="#11161d" stroke="#30363d"/><g clip-path="url(#clip)"><path d="M0 40h420M0 145h420M62 0v180M360 0v180" stroke="#30363d" opacity=".22"/><g class="scan"><rect width="420" height="2" fill="url(#edge)"/><rect y="2" width="420" height="12" fill="#00d9ff" opacity=".025"/></g></g><path d="M1 31V11Q1 1 11 1h58M351 179h58q10 0 10-10v-20" fill="none" stroke="url(#edge)"/>
  <g class="m"><text x="18" y="24" fill="#8b949e" font-size="8.5" letter-spacing="1.5">NODE // 05</text><text x="402" y="24" text-anchor="end" fill="#00d9ff" font-size="8.5" letter-spacing="1.2">STATUS // LIVE</text><circle cx="330" cy="20" r="2.5" fill="#00d9ff" class="pulse" filter="url(#glow)"/><text x="18" y="52" fill="#b388ff" font-size="9" letter-spacing="1.5">ADAPTIVE WELLNESS PLATFORM</text><text x="18" y="78" fill="#f0f6fc" font-size="18" font-weight="700" letter-spacing="1.8">SELF-CARE</text><text x="18" y="101" fill="#c9d1d9" font-size="10.5">MERN application for adaptive routines, daily check-ins, task</text><text x="18" y="116" fill="#c9d1d9" font-size="10.5">tracking, rewards, and AI-assisted personalization.</text><text x="18" y="140" fill="#00d9ff" font-size="8.5" letter-spacing=".8">MONGODB · EXPRESS · REACT · NODE.JS</text><text x="18" y="164" fill="#8b949e" font-size="8.5" letter-spacing="1.2">REPOSITORY // AVAILABLE</text></g><path d="M279 160h112" stroke="#30363d"/><circle cx="279" cy="160" r="2.5" fill="#00d9ff" class="dot" filter="url(#glow)"/>
</svg>
