<svg xmlns="http://www.w3.org/2000/svg" width="520" height="190" viewBox="0 0 520 190" role="img" aria-labelledby="title desc">
  <title id="title">Backend Systems capability module</title><desc id="desc">Technology capability card listing Spring Boot, Node.js, Express, Flask, and REST APIs.</desc>
  <defs><linearGradient id="edge" x1="0" x2="1"><stop stop-color="#00d9ff"/><stop offset="1" stop-color="#6a1b9a"/></linearGradient><pattern id="grid" width="24" height="24" patternUnits="userSpaceOnUse"><path d="M24 0H0V24" fill="none" stroke="#30363d" stroke-width=".6" opacity=".28"/></pattern><filter id="glow"><feGaussianBlur stdDeviation="2" result="b"/><feMerge><feMergeNode in="b"/><feMergeNode in="SourceGraphic"/></feMerge></filter></defs>
  <style>.m{font-family:ui-monospace,SFMono-Regular,Menlo,Consolas,monospace}.p{animation:p 3.1s ease-in-out infinite}.d{animation:d 7.2s linear infinite}@keyframes p{0%,100%{opacity:.35}50%{opacity:1}}@keyframes d{0%{transform:translateX(0);opacity:0}12%,88%{opacity:1}100%{transform:translateX(210px);opacity:0}}@media(prefers-reduced-motion:reduce){.p,.d{animation:none}}</style>
  <rect x="1" y="1" width="518" height="188" rx="10" fill="#11161d" stroke="#30363d"/><rect x="1" y="1" width="518" height="188" rx="10" fill="url(#grid)"/><path d="M1 34V11Q1 1 11 1h70M439 189h70q10 0 10-10v-23" fill="none" stroke="url(#edge)"/>
  <g class="m"><text x="20" y="25" fill="#8b949e" font-size="9" letter-spacing="1.5">MODULE // 03</text><text x="500" y="25" text-anchor="end" fill="#00d9ff" font-size="9" letter-spacing="1.2">SERVICE // API</text><circle cx="400" cy="21" r="2.5" fill="#00d9ff" class="p" filter="url(#glow)"/><text x="20" y="62" fill="#f0f6fc" font-size="20" font-weight="700" letter-spacing="2">BACKEND SYSTEMS</text><text x="20" y="82" fill="#00d9ff" font-size="8.5" letter-spacing="1.4">SERVICE LAYER // APPLICATION INTERFACES</text></g>
  <g fill="#0d1117" stroke="#30363d"><rect x="20" y="101" width="92" height="24" rx="4"/><rect x="120" y="101" width="68" height="24" rx="4"/><rect x="196" y="101" width="68" height="24" rx="4"/><rect x="272" y="101" width="56" height="24" rx="4"/><rect x="336" y="101" width="72" height="24" rx="4"/></g><g class="m" fill="#c9d1d9" font-size="8.5" text-anchor="middle"><text x="66" y="116">SPRING BOOT</text><text x="154" y="116">NODE.JS</text><text x="230" y="116">EXPRESS</text><text x="300" y="116">FLASK</text><text x="372" y="116">REST APIs</text></g>
  <path d="M20 157h210" stroke="#30363d"/><circle cx="20" cy="157" r="3" fill="#00d9ff" class="d" filter="url(#glow)"/><text x="500" y="162" text-anchor="end" class="m" fill="#6e7681" font-size="8.5">SIGNAL // READY</text>
</svg>
